<svg width="170" height="144" viewBox="0 0 170 144" fill="none" xmlns="http://www.w3.org/2000/svg">
<path d="M34.25 127.5H53.75V13.25H15.25V49H0V0H127V49L111.75 49.8342V13.25H74V127.5H93.5V140.75H34.25V127.5ZM137.968 88.31C145.022 89.9967 150.618 91.8367 154.758 93.83C159.052 95.67 162.502 98.43 165.108 102.11C167.715 105.79 169.018 110.697 169.018 116.83C169.018 125.417 165.645 131.933 158.898 136.38C152.152 140.827 144.025 143.05 134.518 143.05C128.692 143.05 123.172 142.13 117.958 140.29C112.745 138.45 108.605 135.997 105.538 132.93V140.75H92.1984V109.47H104.158L105.078 119.36C107.685 123.193 111.442 126.183 116.348 128.33C121.408 130.323 126.698 131.32 132.218 131.32C138.198 131.32 143.105 130.17 146.938 127.87C150.772 125.417 152.688 122.197 152.688 118.21C152.688 113.61 151.232 110.313 148.318 108.32C145.405 106.327 139.962 104.487 131.988 102.8L119.338 100.04C109.985 97.74 103.085 94.75 98.6384 91.07C94.1918 87.2367 91.9684 81.3333 91.9684 73.36C91.9684 65.54 95.0351 59.4067 101.168 54.96C107.455 50.36 115.505 48.06 125.318 48.06C130.072 48.06 134.902 48.8267 139.808 50.36C144.868 51.8933 148.855 54.04 151.768 56.8V49.9H165.338V80.95H153.378L151.768 69.68C149.468 66.92 146.018 64.6967 141.418 63.01C136.972 61.17 132.525 60.25 128.078 60.25C122.712 60.25 118.188 61.3233 114.508 63.47C110.828 65.6167 108.988 68.76 108.988 72.9C108.988 76.2733 110.292 78.88 112.898 80.72C115.505 82.56 119.952 84.2467 126.238 85.78L137.968 88.31ZM102.318 113.61C102.318 113.917 102.395 114.147 102.548 114.3L102.318 113.61Z" fill="black"/>
 <style>
     @media (prefers-color-scheme: dark) {
      path {
        fill: #fff;
      }
    @media (prefers-color-scheme: light) {
      path {
        fill: #000;
      }
      path {
        fill: red;
    }
  </style>
  <path width="50" height="50" rx="5"/>
</svg>
